Metropolis-Light.ufo
<glyph name="exclam" format="1">
  <advance width="225"/>
  <unicode hex="0021"/>
  <outline>
    <contour>
      <point x="131" y="193" type="line"/>
      <point x="131" y="687" type="line"/>
      <point x="95" y="687" type="line"/>
      <point x="95" y="193" type="line"/>
    </contour>
    <component base="period" xOffset="10"/>
  </outline>
</glyph>
<glyph name="plus" format="1">
  <advance width="593"/>
  <unicode hex="002B"/>
  <outline>
    <contour>
      <point x="526" y="316" type="line"/>
      <point x="526" y="352" type="line"/>
      <point x="67" y="352" type="line"/>
      <point x="67" y="316" type="line"/>
    </contour>
    <contour>
      <point x="315" y="105" type="line"/>
      <point x="315" y="564" type="line"/>
      <point x="279" y="564" type="line"/>
      <point x="279" y="105" type="line"/>
    </contour>
  </outline>
</glyph>
<glyph name="comma" format="1">
  <advance width="241"/>
  <unicode hex="002C"/>
  <outline>
    <contour>
      <point x="144" y="-72"/>
      <point x="163" y="-29"/>
      <point x="163" y="6" type="curve" smooth="yes"/>
      <point x="163" y="33"/>
      <point x="150" y="48"/>
      <point x="131" y="48" type="curve" smooth="yes"/>
      <point x="113" y="48"/>
      <point x="100" y="35"/>
      <point x="100" y="18" type="curve" smooth="yes"/>
      <point x="100" y="1"/>
      <point x="112" y="-12"/>
      <point x="131" y="-12" type="curve"/>
      <point x="124" y="-40"/>
      <point x="105" y="-74"/>
      <point x="79" y="-104" type="curve"/>
      <point x="105" y="-123" type="line"/>
    </contour>
  </outline>
</glyph>
<glyph name="period" format="1">
  <advance width="205"/>
  <unicode hex="002E"/>
  <outline>
    <contour>
      <point x="120" y="-12"/>
      <point x="133" y="2"/>
      <point x="133" y="19" type="curve" smooth="yes"/>
      <point x="133" y="34"/>
      <point x="120" y="48"/>
      <point x="104" y="48" type="curve" smooth="yes"/>
      <point x="86" y="48"/>
      <point x="73" y="34"/>
      <point x="73" y="19" type="curve" smooth="yes"/>
      <point x="73" y="2"/>
      <point x="86" y="-12"/>
      <point x="104" y="-12" type="curve" smooth="yes"/>
    </contour>
  </outline>
</glyph>
<glyph name="three" format="1">
  <advance width="550"/>
  <unicode hex="0033"/>
  <outline>
    <contour>
      <point x="393" y="-12"/>
      <point x="493" y="79"/>
      <point x="493" y="187" type="curve" smooth="yes"/>
      <point x="493" y="272"/>
      <point x="446" y="334"/>
      <point x="366" y="352" type="curve"/>
      <point x="436" y="373"/>
      <point x="478" y="432"/>
      <point x="478" y="511" type="curve" smooth="yes"/>
      <point x="478" y="613"/>
      <point x="384" y="699"/>
      <point x="272" y="699" type="curve" smooth="yes"/>
      <point x="187" y="699"/>
      <point x="114" y="656"/>
      <point x="48" y="568" type="curve"/>
      <point x="75" y="544" type="line"/>
      <point x="131" y="624"/>
      <point x="195" y="663"/>
      <point x="268" y="663" type="curve" smooth="yes"/>
      <point x="362" y="663"/>
      <point x="442" y="592"/>
      <point x="442" y="507" type="curve" smooth="yes"/>
      <point x="442" y="418"/>
      <point x="374" y="366"/>
      <point x="259" y="366" type="curve" smooth="yes"/>
      <point x="196" y="366" type="line"/>
      <point x="196" y="330" type="line"/>
      <point x="258" y="330" type="line" smooth="yes"/>
      <point x="383" y="330"/>
      <point x="457" y="278"/>
      <point x="457" y="189" type="curve" smooth="yes"/>
      <point x="457" y="99"/>
      <point x="374" y="24"/>
      <point x="275" y="24" type="curve" smooth="yes"/>
      <point x="188" y="24"/>
      <point x="119" y="64"/>
      <point x="66" y="145" type="curve"/>
      <point x="40" y="120" type="line"/>
      <point x="107" y="31"/>
      <point x="184" y="-12"/>
      <point x="275" y="-12" type="curve" smooth="yes"/>
    </contour>
  </outline>
</glyph>
<glyph name="five" format="1">
  <advance width="578"/>
  <unicode hex="0035"/>
  <outline>
    <contour>
      <point x="420" y="-12"/>
      <point x="521" y="91"/>
      <point x="521" y="214" type="curve" smooth="yes"/>
      <point x="521" y="325"/>
      <point x="425" y="418"/>
      <point x="311" y="418" type="curve" smooth="yes"/>
      <point x="248" y="418"/>
      <point x="186" y="398"/>
      <point x="146" y="364" type="curve"/>
      <point x="153" y="651" type="line"/>
      <point x="495" y="651" type="line"/>
      <point x="495" y="687" type="line"/>
      <point x="118" y="687" type="line"/>
      <point x="109" y="341" type="line"/>
      <point x="145" y="323" type="line"/>
      <point x="194" y="360"/>
      <point x="252" y="382"/>
      <point x="303" y="382" type="curve" smooth="yes"/>
      <point x="402" y="382"/>
      <point x="485" y="304"/>
      <point x="485" y="211" type="curve" smooth="yes"/>
      <point x="485" y="109"/>
      <point x="400" y="24"/>
      <point x="300" y="24" type="curve" smooth="yes"/>
      <point x="217" y="24"/>
      <point x="135" y="61"/>
      <point x="80" y="124" type="curve"/>
      <point x="56" y="97" type="line"/>
      <point x="116" y="28"/>
      <point x="207" y="-12"/>
      <point x="300" y="-12" type="curve" smooth="yes"/>
    </contour>
  </outline>
</glyph>
<glyph name="less" format="1">
  <advance width="586"/>
  <unicode hex="003C"/>
  <outline>
    <contour>
      <point x="510" y="146" type="line"/>
      <point x="102" y="344" type="line"/>
      <point x="510" y="542" type="line"/>
      <point x="510" y="586" type="line"/>
      <point x="55" y="366" type="line"/>
      <point x="55" y="322" type="line"/>
      <point x="510" y="102" type="line"/>
    </contour>
  </outline>
</glyph>
<glyph name="at" format="1">
  <advance width="881"/>
  <unicode hex="0040"/>
  <outline>
    <contour>
      <point x="517" y="-116"/>
      <point x="585" y="-96"/>
      <point x="662" y="-47" type="curve"/>
      <point x="644" y="-20" type="line"/>
      <point x="571" y="-64"/>
      <point x="510" y="-81"/>
      <point x="428" y="-81" type="curve" smooth="yes"/>
      <point x="240" y="-81"/>
      <point x="82" y="75"/>
      <point x="82" y="260" type="curve" smooth="yes"/>
      <point x="82" y="466"/>
      <point x="255" y="639"/>
      <point x="460" y="639" type="curve" smooth="yes"/>
      <point x="645" y="639"/>
      <point x="801" y="493"/>
      <point x="801" y="319" type="curve" smooth="yes"/>
      <point x="801" y="179"/>
      <point x="727" y="114"/>
      <point x="672" y="114" type="curve" smooth="yes"/>
      <point x="627" y="114"/>
      <point x="591" y="143"/>
      <point x="591" y="191" type="curve" smooth="yes"/>
      <point x="591" y="216"/>
      <point x="611" y="322"/>
      <point x="647" y="481" type="curve"/>
      <point x="607" y="486" type="line"/>
      <point x="593" y="420" type="line"/>
      <point x="571" y="463"/>
      <point x="521" y="501"/>
      <point x="450" y="501" type="curve" smooth="yes"/>
      <point x="332" y="501"/>
      <point x="232" y="387"/>
      <point x="232" y="251" type="curve" smooth="yes"/>
      <point x="232" y="150"/>
      <point x="295" y="78"/>
      <point x="385" y="78" type="curve" smooth="yes"/>
      <point x="454" y="78"/>
      <point x="516" y="116"/>
      <point x="553" y="164" type="curve"/>
      <point x="564" y="110"/>
      <point x="605" y="78"/>
      <point x="662" y="78" type="curve" smooth="yes"/>
      <point x="750" y="78"/>
      <point x="837" y="156"/>
      <point x="837" y="319" type="curve" smooth="yes"/>
      <point x="837" y="512"/>
      <point x="666" y="675"/>
      <point x="462" y="675" type="curve" smooth="yes"/>
      <point x="235" y="675"/>
      <point x="44" y="485"/>
      <point x="44" y="259" type="curve" smooth="yes"/>
      <point x="44" y="55"/>
      <point x="219" y="-116"/>
      <point x="426" y="-116" type="curve" smooth="yes"/>
    </contour>
    <contour>
      <point x="320" y="114"/>
      <point x="268" y="172"/>
      <point x="268" y="255" type="curve" smooth="yes"/>
      <point x="268" y="369"/>
      <point x="353" y="465"/>
      <point x="454" y="465" type="curve" smooth="yes"/>
      <point x="540" y="465"/>
      <point x="588" y="394"/>
      <point x="569" y="294" type="curve" smooth="yes"/>
      <point x="551" y="199"/>
      <point x="488" y="114"/>
      <point x="394" y="114" type="curve" smooth="yes"/>
    </contour>
  </outline>
</glyph>
<glyph name="C" format="1">
  <advance width="680"/>
  <unicode hex="0043"/>
  <outline>
    <contour>
      <point x="499" y="-12"/>
      <point x="587" y="29"/>
      <point x="651" y="93" type="curve"/>
      <point x="625" y="119" type="line"/>
      <point x="568" y="60"/>
      <point x="489" y="24"/>
      <point x="404" y="24" type="curve" smooth="yes"/>
      <point x="232" y="24"/>
      <point x="88" y="170"/>
      <point x="88" y="344" type="curve" smooth="yes"/>
      <point x="88" y="517"/>
      <point x="232" y="663"/>
      <point x="404" y="663" type="curve" smooth="yes"/>
      <point x="489" y="663"/>
      <point x="568" y="627"/>
      <point x="625" y="569" type="curve"/>
      <point x="651" y="594" type="line"/>
      <point x="587" y="659"/>
      <point x="499" y="699"/>
      <point x="404" y="699" type="curve" smooth="yes"/>
      <point x="213" y="699"/>
      <point x="52" y="537"/>
      <point x="52" y="344" type="curve" smooth="yes"/>
      <point x="52" y="151"/>
      <point x="213" y="-12"/>
      <point x="404" y="-12" type="curve" smooth="yes"/>
    </contour>
    <contour>
      <point x="394" y="687" type="move" name="top"/>
    </contour>
    <contour>
      <point x="404" y="0" type="move" name="bottom"/>
    </contour>
  </outline>
</glyph>
<glyph name="D" format="1">
  <advance width="745"/>
  <unicode hex="0044"/>
  <outline>
    <contour>
      <point x="329" y="0" type="line" smooth="yes"/>
      <point x="535" y="0"/>
      <point x="681" y="143"/>
      <point x="681" y="344" type="curve" smooth="yes"/>
      <point x="681" y="545"/>
      <point x="535" y="687"/>
      <point x="329" y="687" type="curve" smooth="yes"/>
      <point x="94" y="687" type="line"/>
      <point x="94" y="0" type="line"/>
    </contour>
    <contour>
      <point x="130" y="651" type="line"/>
      <point x="329" y="651" type="line" smooth="yes"/>
      <point x="514" y="651"/>
      <point x="645" y="524"/>
      <point x="645" y="344" type="curve" smooth="yes"/>
      <point x="645" y="164"/>
      <point x="514" y="36"/>
      <point x="329" y="36" type="curve" smooth="yes"/>
      <point x="130" y="36" type="line"/>
    </contour>
    <contour>
      <point x="329" y="687" type="move" name="top"/>
    </contour>
  </outline>
</glyph>
<glyph name="E" format="1">
  <advance width="585"/>
  <unicode hex="0045"/>
  <outline>
    <contour>
      <point x="530" y="0" type="line"/>
      <point x="530" y="36" type="line"/>
      <point x="106" y="36" type="line"/>
      <point x="115" y="26" type="line"/>
      <point x="115" y="342" type="line"/>
      <point x="106" y="332" type="line"/>
      <point x="499" y="332" type="line"/>
      <point x="499" y="368" type="line"/>
      <point x="106" y="368" type="line"/>
      <point x="115" y="358" type="line"/>
      <point x="115" y="661" type="line"/>
      <point x="106" y="651" type="line"/>
      <point x="530" y="651" type="line"/>
      <point x="530" y="687" type="line"/>
      <point x="79" y="687" type="line"/>
      <point x="79" y="0" type="line"/>
    </contour>
    <contour>
      <point x="305" y="687" type="move" name="top"/>
    </contour>
    <contour>
      <point x="328" y="0" type="move" name="bottom"/>
    </contour>
  </outline>
</glyph>
<glyph name="G" format="1">
  <advance width="743"/>
  <unicode hex="0047"/>
  <outline>
    <contour>
      <point x="506" y="-12"/>
      <point x="600" y="28"/>
      <point x="669" y="91" type="curve"/>
      <point x="644" y="116" type="line"/>
      <point x="581" y="59"/>
      <point x="496" y="24"/>
      <point x="404" y="24" type="curve" smooth="yes"/>
      <point x="232" y="24"/>
      <point x="88" y="170"/>
      <point x="88" y="344" type="curve" smooth="yes"/>
      <point x="88" y="517"/>
      <point x="232" y="663"/>
      <point x="404" y="663" type="curve" smooth="yes"/>
      <point x="496" y="663"/>
      <point x="581" y="628"/>
      <point x="643" y="571" type="curve"/>
      <point x="669" y="597" type="line"/>
      <point x="600" y="660"/>
      <point x="506" y="699"/>
      <point x="404" y="699" type="curve" smooth="yes"/>
      <point x="213" y="699"/>
      <point x="52" y="537"/>
      <point x="52" y="344" type="curve" smooth="yes"/>
      <point x="52" y="151"/>
      <point x="213" y="-12"/>
      <point x="404" y="-12" type="curve" smooth="yes"/>
    </contour>
    <contour>
      <point x="669" y="91" type="line"/>
      <point x="669" y="341" type="line"/>
      <point x="394" y="341" type="line"/>
      <point x="394" y="305" type="line"/>
      <point x="648" y="305" type="line"/>
      <point x="633" y="325" type="line"/>
      <point x="633" y="91" type="line"/>
    </contour>
    <contour>
      <point x="404" y="687" type="move" name="top"/>
    </contour>
    <contour>
      <point x="402" y="0" type="move" name="bottom"/>
    </contour>
  </outline>
</glyph>
<glyph name="H" format="1">
  <advance width="677"/>
  <unicode hex="0048"/>
  <outline>
    <contour>
      <point x="115" y="0" type="line"/>
      <point x="115" y="343" type="line"/>
      <point x="114" y="332" type="line"/>
      <point x="562" y="332" type="line"/>
      <point x="562" y="343" type="line"/>
      <point x="562" y="0" type="line"/>
      <point x="598" y="0" type="line"/>
      <point x="598" y="687" type="line"/>
      <point x="562" y="687" type="line"/>
      <point x="562" y="357" type="line"/>
      <point x="563" y="368" type="line"/>
      <point x="114" y="368" type="line"/>
      <point x="115" y="357" type="line"/>
      <point x="115" y="687" type="line"/>
      <point x="79" y="687" type="line"/>
      <point x="79" y="0" type="line"/>
    </contour>
  </outline>
</glyph>
<glyph name="M" format="1">
  <advance width="812"/>
  <unicode hex="004D"/>
  <outline>
    <contour>
      <point x="130" y="0" type="line"/>
      <point x="130" y="615" type="line"/>
      <point x="406" y="96" type="line"/>
      <point x="682" y="615" type="line"/>
      <point x="682" y="0" type="line"/>
      <point x="718" y="0" type="line"/>
      <point x="718" y="687" type="line"/>
      <point x="682" y="687" type="line"/>
      <point x="406" y="168" type="line"/>
      <point x="130" y="687" type="line"/>
      <point x="94" y="687" type="line"/>
      <point x="94" y="0" type="line"/>
    </contour>
  </outline>
</glyph>
<glyph name="S" format="1">
  <advance width="603"/>
  <unicode hex="0053"/>
  <outline>
    <contour>
      <point x="453" y="-11"/>
      <point x="549" y="67"/>
      <point x="549" y="177" type="curve" smooth="yes"/>
      <point x="549" y="273"/>
      <point x="484" y="327"/>
      <point x="323" y="365" type="curve" smooth="yes"/>
      <point x="175" y="401"/>
      <point x="116" y="441"/>
      <point x="116" y="507" type="curve" smooth="yes"/>
      <point x="116" y="599"/>
      <point x="191" y="664"/>
      <point x="298" y="664" type="curve" smooth="yes"/>
      <point x="378" y="664"/>
      <point x="456" y="631"/>
      <point x="515" y="574" type="curve"/>
      <point x="537" y="602" type="line"/>
      <point x="470" y="664"/>
      <point x="384" y="700"/>
      <point x="300" y="700" type="curve" smooth="yes"/>
      <point x="171" y="700"/>
      <point x="80" y="619"/>
      <point x="80" y="504" type="curve" smooth="yes"/>
      <point x="80" y="418"/>
      <point x="144" y="369"/>
      <point x="305" y="332" type="curve" smooth="yes"/>
      <point x="454" y="297"/>
      <point x="513" y="252"/>
      <point x="513" y="174" type="curve" smooth="yes"/>
      <point x="513" y="87"/>
      <point x="432" y="25"/>
      <point x="318" y="25" type="curve" smooth="yes"/>
      <point x="224" y="25"/>
      <point x="131" y="63"/>
      <point x="68" y="126" type="curve"/>
      <point x="46" y="98" type="line"/>
      <point x="116" y="29"/>
      <point x="216" y="-11"/>
      <point x="317" y="-11" type="curve" smooth="yes"/>
    </contour>
    <contour>
      <point x="300" y="687" type="move" name="top"/>
    </contour>
    <contour>
      <point x="309" y="0" type="move" name="bottom"/>
    </contour>
  </outline>
</glyph>
<glyph name="T" format="1">
  <advance width="630"/>
  <unicode hex="0054"/>
  <outline>
    <contour>
      <point x="333" y="0" type="line"/>
      <point x="333" y="651" type="line"/>
      <point x="585" y="651" type="line"/>
      <point x="585" y="687" type="line"/>
      <point x="45" y="687" type="line"/>
      <point x="45" y="651" type="line"/>
      <point x="297" y="651" type="line"/>
      <point x="297" y="0" type="line"/>
    </contour>
    <contour>
      <point x="315" y="687" type="move" name="top"/>
    </contour>
    <contour>
      <point x="315" y="0" type="move" name="bottom"/>
    </contour>
  </outline>
</glyph>
<glyph name="Y" format="1">
  <advance width="632"/>
  <unicode hex="0059"/>
  <outline>
    <contour>
      <point x="334" y="0" type="line"/>
      <point x="334" y="279" type="line"/>
      <point x="614" y="687" type="line"/>
      <point x="568" y="687" type="line"/>
      <point x="316" y="320" type="line"/>
      <point x="64" y="687" type="line"/>
      <point x="18" y="687" type="line"/>
      <point x="298" y="279" type="line"/>
      <point x="298" y="0" type="line"/>
    </contour>
    <contour>
      <point x="316" y="687" type="move" name="top"/>
    </contour>
  </outline>
</glyph>
<glyph name="bracketright" format="1">
  <advance width="351"/>
  <unicode hex="005D"/>
  <outline>
    <contour>
      <point x="270" y="-115" type="line"/>
      <point x="270" y="734" type="line"/>
      <point x="49" y="734" type="line"/>
      <point x="49" y="698" type="line"/>
      <point x="234" y="698" type="line"/>
      <point x="234" y="-79" type="line"/>
      <point x="49" y="-79" type="line"/>
      <point x="49" y="-115" type="line"/>
    </contour>
  </outline>
</glyph>
<glyph name="grave" format="1">
  <advance width="292"/>
  <unicode hex="0060"/>
  <outline>
    <contour>
      <point x="229" y="576" type="line"/>
      <point x="104" y="718" type="line"/>
      <point x="63" y="709" type="line"/>
      <point x="181" y="576" type="line"/>
    </contour>
    <contour>
      <point x="157" y="704" type="move" name="top"/>
    </contour>
    <contour>
      <point x="157" y="517" type="move" name="_top"/>
    </contour>
  </outline>
</glyph>
<glyph name="f" format="1">
  <advance width="341"/>
  <unicode hex="0066"/>
  <outline>
    <contour>
      <point x="164" y="0" type="line"/>
      <point x="164" y="588" type="line" smooth="yes"/>
      <point x="164" y="644"/>
      <point x="194" y="684"/>
      <point x="236" y="684" type="curve" smooth="yes"/>
      <point x="266" y="684"/>
      <point x="290" y="676"/>
      <point x="310" y="659" type="curve"/>
      <point x="330" y="687" type="line"/>
      <point x="302" y="709"/>
      <point x="270" y="720"/>
      <point x="234" y="720" type="curve" smooth="yes"/>
      <point x="172" y="720"/>
      <point x="128" y="665"/>
      <point x="128" y="588" type="curve" smooth="yes"/>
      <point x="128" y="0" type="line"/>
    </contour>
    <contour>
      <point x="309" y="481" type="line"/>
      <point x="309" y="517" type="line"/>
      <point x="37" y="517" type="line"/>
      <point x="37" y="481" type="line"/>
    </contour>
  </outline>
</glyph>
<glyph name="g" format="1">
  <advance width="597"/>
  <unicode hex="0067"/>
  <outline>
    <contour>
      <point x="478" y="55" type="line" smooth="yes"/>
      <point x="478" y="-57"/>
      <point x="394" y="-136"/>
      <point x="276" y="-136" type="curve" smooth="yes"/>
      <point x="211" y="-136"/>
      <point x="133" y="-109"/>
      <point x="88" y="-71" type="curve"/>
      <point x="70" y="-103" type="line"/>
      <point x="117" y="-143"/>
      <point x="204" y="-172"/>
      <point x="279" y="-172" type="curve" smooth="yes"/>
      <point x="417" y="-172"/>
      <point x="514" y="-78"/>
      <point x="514" y="55" type="curve" smooth="yes"/>
      <point x="514" y="517" type="line"/>
      <point x="478" y="517" type="line"/>
    </contour>
    <contour>
      <point x="162" y="74"/>
      <point x="72" y="170"/>
      <point x="72" y="284" type="curve" smooth="yes"/>
      <point x="72" y="397"/>
      <point x="162" y="493"/>
      <point x="269" y="493" type="curve" smooth="yes"/>
      <point x="387" y="493"/>
      <point x="478" y="406"/>
      <point x="478" y="284" type="curve" smooth="yes"/>
      <point x="478" y="161"/>
      <point x="387" y="74"/>
      <point x="269" y="74" type="curve" smooth="yes"/>
    </contour>
    <contour>
      <point x="483" y="382" type="line"/>
      <point x="448" y="479"/>
      <point x="365" y="529"/>
      <point x="262" y="529" type="curve" smooth="yes"/>
      <point x="139" y="529"/>
      <point x="36" y="417"/>
      <point x="36" y="284" type="curve" smooth="yes"/>
      <point x="36" y="150"/>
      <point x="139" y="38"/>
      <point x="262" y="38" type="curve" smooth="yes"/>
      <point x="361" y="38"/>
      <point x="448" y="89"/>
      <point x="483" y="186" type="curve"/>
    </contour>
    <contour>
      <point x="286" y="517" type="move" name="top"/>
    </contour>
    <contour>
      <point x="279" y="-172" type="move" name="bottom"/>
    </contour>
  </outline>
</glyph>
<glyph name="j" format="1">
  <advance width="161"/>
  <unicode hex="006A"/>
  <outline>
    <contour>
      <point x="97" y="631"/>
      <point x="111" y="644"/>
      <point x="111" y="661" type="curve" smooth="yes"/>
      <point x="111" y="677"/>
      <point x="97" y="691"/>
      <point x="81" y="691" type="curve" smooth="yes"/>
      <point x="64" y="691"/>
      <point x="51" y="677"/>
      <point x="51" y="661" type="curve" smooth="yes"/>
      <point x="51" y="644"/>
      <point x="64" y="631"/>
      <point x="81" y="631" type="curve" smooth="yes"/>
    </contour>
    <component base="jdotless"/>
  </outline>
</glyph>
<glyph name="o" format="1">
  <advance width="631"/>
  <unicode hex="006F"/>
  <outline>
    <contour>
      <point x="461" y="-12"/>
      <point x="583" y="112"/>
      <point x="583" y="259" type="curve" smooth="yes"/>
      <point x="583" y="406"/>
      <point x="461" y="529"/>
      <point x="316" y="529" type="curve" smooth="yes"/>
      <point x="171" y="529"/>
      <point x="48" y="406"/>
      <point x="48" y="259" type="curve" smooth="yes"/>
      <point x="48" y="112"/>
      <point x="171" y="-12"/>
      <point x="316" y="-12" type="curve" smooth="yes"/>
    </contour>
    <contour>
      <point x="190" y="24"/>
      <point x="84" y="131"/>
      <point x="84" y="259" type="curve" smooth="yes"/>
      <point x="84" y="386"/>
      <point x="190" y="493"/>
      <point x="316" y="493" type="curve" smooth="yes"/>
      <point x="441" y="493"/>
      <point x="547" y="386"/>
      <point x="547" y="259" type="curve" smooth="yes"/>
      <point x="547" y="131"/>
      <point x="441" y="24"/>
      <point x="316" y="24" type="curve" smooth="yes"/>
    </contour>
    <contour>
      <point x="316" y="517" type="move" name="top"/>
    </contour>
  </outline>
</glyph>
<glyph name="y" format="1">
  <advance width="567"/>
  <unicode hex="0079"/>
  <outline>
    <contour>
      <point x="200" y="-179"/>
      <point x="249" y="-145"/>
      <point x="277" y="-76" type="curve" smooth="yes"/>
      <point x="520" y="517" type="line"/>
      <point x="481" y="517" type="line"/>
      <point x="279" y="25" type="line"/>
      <point x="69" y="517" type="line"/>
      <point x="30" y="517" type="line"/>
      <point x="260" y="-21" type="line"/>
      <point x="229" y="-94" type="line"/>
      <point x="211" y="-125"/>
      <point x="173" y="-144"/>
      <point x="127" y="-144" type="curve" smooth="yes"/>
      <point x="104" y="-144"/>
      <point x="78" y="-137"/>
      <point x="55" y="-126" type="curve"/>
      <point x="45" y="-163" type="line"/>
      <point x="68" y="-174"/>
      <point x="99" y="-180"/>
      <point x="127" y="-180" type="curve" smooth="yes"/>
    </contour>
    <contour>
      <point x="279" y="517" type="move" name="top"/>
    </contour>
  </outline>
</glyph>
<glyph name="z" format="1">
  <advance width="514"/>
  <unicode hex="007A"/>
  <outline>
    <contour>
      <point x="462" y="0" type="line"/>
      <point x="462" y="36" type="line"/>
      <point x="101" y="36" type="line"/>
      <point x="460" y="487" type="line"/>
      <point x="460" y="517" type="line"/>
      <point x="60" y="517" type="line"/>
      <point x="60" y="481" type="line"/>
      <point x="413" y="481" type="line"/>
      <point x="54" y="30" type="line"/>
      <point x="54" y="0" type="line"/>
    </contour>
    <contour>
      <point x="259" y="517" type="move" name="top"/>
    </contour>
  </outline>
</glyph>
<glyph name="braceleft" format="1">
  <advance width="392"/>
  <unicode hex="007B"/>
  <outline>
    <contour>
      <point x="346" y="-131" type="line"/>
      <point x="235" y="-119"/>
      <point x="191" y="-79"/>
      <point x="191" y="8" type="curve" smooth="yes"/>
      <point x="192" y="151" type="line" smooth="yes"/>
      <point x="192" y="218"/>
      <point x="172" y="251"/>
      <point x="122" y="266" type="curve"/>
      <point x="172" y="280"/>
      <point x="192" y="313"/>
      <point x="192" y="380" type="curve" smooth="yes"/>
      <point x="191" y="524" type="line" smooth="yes"/>
      <point x="191" y="610"/>
      <point x="235" y="650"/>
      <point x="346" y="662" type="curve"/>
      <point x="342" y="697" type="line"/>
      <point x="209" y="682"/>
      <point x="156" y="634"/>
      <point x="156" y="528" type="curve" smooth="yes"/>
      <point x="156" y="388" type="line" smooth="yes"/>
      <point x="156" y="314"/>
      <point x="124" y="284"/>
      <point x="43" y="284" type="curve"/>
      <point x="43" y="248" type="line"/>
      <point x="124" y="248"/>
      <point x="156" y="218"/>
      <point x="156" y="144" type="curve" smooth="yes"/>
      <point x="156" y="3" type="line" smooth="yes"/>
      <point x="156" y="-103"/>
      <point x="209" y="-151"/>
      <point x="342" y="-166" type="curve"/>
    </contour>
  </outline>
</glyph>
<glyph name="braceright" format="1">
  <advance width="392"/>
  <unicode hex="007D"/>
  <outline>
    <contour>
      <point x="183" y="-151"/>
      <point x="236" y="-103"/>
      <point x="236" y="3" type="curve" smooth="yes"/>
      <point x="236" y="144" type="line" smooth="yes"/>
      <point x="236" y="218"/>
      <point x="268" y="248"/>
      <point x="349" y="248" type="curve"/>
      <point x="349" y="284" type="line"/>
      <point x="268" y="284"/>
      <point x="236" y="314"/>
      <point x="236" y="388" type="curve" smooth="yes"/>
      <point x="236" y="528" type="line" smooth="yes"/>
      <point x="236" y="634"/>
      <point x="183" y="682"/>
      <point x="50" y="697" type="curve"/>
      <point x="46" y="662" type="line"/>
      <point x="157" y="650"/>
      <point x="201" y="610"/>
      <point x="201" y="524" type="curve" smooth="yes"/>
      <point x="200" y="380" type="line" smooth="yes"/>
      <point x="200" y="313"/>
      <point x="220" y="280"/>
      <point x="270" y="266" type="curve"/>
      <point x="220" y="251"/>
      <point x="200" y="218"/>
      <point x="200" y="151" type="curve" smooth="yes"/>
      <point x="201" y="8" type="line" smooth="yes"/>
      <point x="201" y="-79"/>
      <point x="157" y="-119"/>
      <point x="46" y="-131" type="curve"/>
      <point x="50" y="-166" type="line"/>
    </contour>
  </outline>
</glyph>
<glyph name="sterling" format="1">
  <advance width="569"/>
  <unicode hex="00A3"/>
  <outline>
    <contour>
      <point x="523" y="0" type="line"/>
      <point x="523" y="36" type="line"/>
      <point x="126" y="36" type="line"/>
      <point x="137" y="24" type="line"/>
      <point x="137" y="463" type="line" smooth="yes"/>
      <point x="137" y="580"/>
      <point x="207" y="663"/>
      <point x="307" y="663" type="curve" smooth="yes"/>
      <point x="388" y="663"/>
      <point x="455" y="624"/>
      <point x="486" y="557" type="curve"/>
      <point x="511" y="579" type="line"/>
      <point x="475" y="654"/>
      <point x="400" y="699"/>
      <point x="307" y="699" type="curve" smooth="yes"/>
      <point x="186" y="699"/>
      <point x="101" y="601"/>
      <point x="101" y="463" type="curve" smooth="yes"/>
      <point x="101" y="36" type="line"/>
      <point x="55" y="18" type="line"/>
      <point x="55" y="0" type="line"/>
    </contour>
    <contour>
      <point x="350" y="277" type="line"/>
      <point x="350" y="313" type="line"/>
      <point x="55" y="313" type="line"/>
      <point x="55" y="277" type="line"/>
    </contour>
  </outline>
</glyph>
<glyph name="paragraph" format="1">
  <advance width="576"/>
  <unicode hex="00B6"/>
  <outline>
    <contour>
      <point x="296" y="-50" type="line"/>
      <point x="296" y="651" type="line"/>
      <point x="430" y="651" type="line"/>
      <point x="430" y="-50" type="line"/>
      <point x="466" y="-50" type="line"/>
      <point x="466" y="687" type="line"/>
      <point x="252" y="687" type="line"/>
      <point x="136" y="687"/>
      <point x="39" y="612"/>
      <point x="39" y="496" type="curve" smooth="yes"/>
      <point x="39" y="382"/>
      <point x="126" y="303"/>
      <point x="260" y="303" type="curve"/>
      <point x="260" y="-50" type="line"/>
    </contour>
  </outline>
</glyph>
<glyph name="periodcentered" format="1">
  <advance width="186"/>
  <unicode hex="00B7"/>
  <outline>
    <contour>
      <point x="109" y="241"/>
      <point x="121" y="253"/>
      <point x="121" y="269" type="curve" smooth="yes"/>
      <point x="121" y="284"/>
      <point x="109" y="296"/>
      <point x="94" y="296" type="curve" smooth="yes"/>
      <point x="78" y="296"/>
      <point x="66" y="284"/>
      <point x="66" y="269" type="curve" smooth="yes"/>
      <point x="66" y="253"/>
      <point x="78" y="241"/>
      <point x="94" y="241" type="curve" smooth="yes"/>
    </contour>
  </outline>
</glyph>
<glyph name="Eth" format="1">
  <advance width="777"/>
  <unicode hex="00D0"/>
  <outline>
    <contour>
      <point x="390" y="332" type="line"/>
      <point x="391" y="368" type="line"/>
      <point x="42" y="368" type="line"/>
      <point x="42" y="332" type="line"/>
    </contour>
    <component base="D" xOffset="32"/>
  </outline>
</glyph>
<glyph name="multiply" format="1">
  <advance width="515"/>
  <unicode hex="00D7"/>
  <outline>
    <contour>
      <point x="433" y="484" type="line"/>
      <point x="407" y="509" type="line"/>
      <point x="83" y="185" type="line"/>
      <point x="108" y="159" type="line"/>
    </contour>
    <contour>
      <point x="432" y="185" type="line"/>
      <point x="108" y="509" type="line"/>
      <point x="82" y="484" type="line"/>
      <point x="407" y="159" type="line"/>
    </contour>
  </outline>
</glyph>
<glyph name="divide" format="1">
  <advance width="593"/>
  <unicode hex="00F7"/>
  <outline>
    <contour>
      <point x="526" y="316" type="line"/>
      <point x="526" y="352" type="line"/>
      <point x="67" y="352" type="line"/>
      <point x="67" y="316" type="line"/>
    </contour>
    <contour>
      <point x="314" y="142"/>
      <point x="327" y="156"/>
      <point x="327" y="173" type="curve" smooth="yes"/>
      <point x="327" y="188"/>
      <point x="314" y="202"/>
      <point x="298" y="202" type="curve" smooth="yes"/>
      <point x="280" y="202"/>
      <point x="267" y="188"/>
      <point x="267" y="173" type="curve" smooth="yes"/>
      <point x="267" y="156"/>
      <point x="280" y="142"/>
      <point x="298" y="142" type="curve" smooth="yes"/>
    </contour>
    <contour>
      <point x="314" y="466"/>
      <point x="327" y="480"/>
      <point x="327" y="497" type="curve" smooth="yes"/>
      <point x="327" y="512"/>
      <point x="314" y="526"/>
      <point x="298" y="526" type="curve" smooth="yes"/>
      <point x="280" y="526"/>
      <point x="267" y="512"/>
      <point x="267" y="497" type="curve" smooth="yes"/>
      <point x="267" y="480"/>
      <point x="280" y="466"/>
      <point x="298" y="466" type="curve" smooth="yes"/>
    </contour>
  </outline>
</glyph>
<glyph name="Lslash" format="1">
  <advance width="607"/>
  <unicode hex="0141"/>
  <outline>
    <contour>
      <point x="336" y="406" type="line"/>
      <point x="336" y="447" type="line"/>
      <point x="37" y="293" type="line"/>
      <point x="37" y="252" type="line"/>
    </contour>
    <component base="L" xOffset="73"/>
  </outline>
</glyph>
<glyph name="caron" format="1">
  <advance width="384"/>
  <unicode hex="02C7"/>
  <outline>
    <contour>
      <point x="213" y="576" type="line"/>
      <point x="321" y="713" type="line"/>
      <point x="277" y="713" type="line"/>
      <point x="191" y="607" type="line"/>
      <point x="107" y="713" type="line"/>
      <point x="63" y="713" type="line"/>
      <point x="169" y="576" type="line"/>
    </contour>
    <contour>
      <point x="191" y="704" type="move" name="top"/>
    </contour>
    <contour>
      <point x="191" y="517" type="move" name="_top"/>
    </contour>
  </outline>
</glyph>
<glyph name="dotaccent" format="1">
  <advance width="186"/>
  <unicode hex="02D9"/>
  <outline>
    <contour>
      <point x="109" y="613"/>
      <point x="123" y="627"/>
      <point x="123" y="643" type="curve" smooth="yes"/>
      <point x="123" y="659"/>
      <point x="109" y="673"/>
      <point x="93" y="673" type="curve" smooth="yes"/>
      <point x="76" y="673"/>
      <point x="63" y="659"/>
      <point x="63" y="643" type="curve" smooth="yes"/>
      <point x="63" y="627"/>
      <point x="76" y="613"/>
      <point x="93" y="613" type="curve" smooth="yes"/>
    </contour>
    <contour>
      <point x="93" y="704" type="move" name="top"/>
    </contour>
    <contour>
      <point x="93" y="0" type="move" name="bottom"/>
    </contour>
    <contour>
      <point x="93" y="517" type="move" name="_top"/>
    </contour>
  </outline>
</glyph>
<glyph name="tilde" format="1">
  <advance width="451"/>
  <unicode hex="02DC"/>
  <outline>
    <contour>
      <point x="339" y="586"/>
      <point x="372" y="626"/>
      <point x="381" y="694" type="curve"/>
      <point x="345" y="701" type="line"/>
      <point x="336" y="651"/>
      <point x="316" y="622"/>
      <point x="290" y="622" type="curve" smooth="yes"/>
      <point x="249" y="622"/>
      <point x="220" y="688"/>
      <point x="161" y="688" type="curve" smooth="yes"/>
      <point x="113" y="688"/>
      <point x="79" y="648"/>
      <point x="70" y="580" type="curve"/>
      <point x="106" y="573" type="line"/>
      <point x="114" y="623"/>
      <point x="135" y="652"/>
      <point x="161" y="652" type="curve" smooth="yes"/>
      <point x="202" y="652"/>
      <point x="231" y="586"/>
      <point x="290" y="586" type="curve" smooth="yes"/>
    </contour>
    <contour>
      <point x="226" y="704" type="move" name="top"/>
    </contour>
    <contour>
      <point x="226" y="517" type="move" name="_top"/>
    </contour>
  </outline>
</glyph>
<glyph name="commaaccentcomb" format="1">
  <advance width="241"/>
  <unicode hex="0326"/>
  <outline>
    <contour>
      <point x="144" y="-217"/>
      <point x="163" y="-174"/>
      <point x="163" y="-139" type="curve" smooth="yes"/>
      <point x="163" y="-112"/>
      <point x="150" y="-97"/>
      <point x="131" y="-97" type="curve" smooth="yes"/>
      <point x="113" y="-97"/>
      <point x="100" y="-110"/>
      <point x="100" y="-127" type="curve" smooth="yes"/>
      <point x="100" y="-144"/>
      <point x="112" y="-157"/>
      <point x="131" y="-157" type="curve"/>
      <point x="124" y="-185"/>
      <point x="105" y="-219"/>
      <point x="79" y="-249" type="curve"/>
      <point x="105" y="-268" type="line"/>
    </contour>
    <contour>
      <point x="131" y="0" type="move" name="_bottom"/>
    </contour>
    <contour>
      <point x="131" y="517" type="move" name="_top"/>
    </contour>
  </outline>
</glyph>
<glyph name="emdash" format="1">
  <advance width="882"/>
  <unicode hex="2014"/>
  <outline>
    <contour>
      <point x="826" y="254" type="line"/>
      <point x="826" y="290" type="line"/>
      <point x="56" y="290" type="line"/>
      <point x="56" y="254" type="line"/>
    </contour>
  </outline>
</glyph>
<glyph name="bullet" format="1">
  <advance width="394"/>
  <unicode hex="2022"/>
  <outline>
    <contour>
      <point x="253" y="196"/>
      <point x="299" y="242"/>
      <point x="299" y="298" type="curve" smooth="yes"/>
      <point x="299" y="353"/>
      <point x="253" y="399"/>
      <point x="198" y="399" type="curve" smooth="yes"/>
      <point x="142" y="399"/>
      <point x="96" y="353"/>
      <point x="96" y="298" type="curve" smooth="yes"/>
      <point x="96" y="242"/>
      <point x="142" y="196"/>
      <point x="198" y="196" type="curve" smooth="yes"/>
    </contour>
  </outline>
</glyph>
<glyph name="perthousand" format="1">
  <advance width="1141"/>
  <unicode hex="2030"/>
  <outline>
    <contour>
      <point x="174" y="0" type="line"/>
      <point x="644" y="687" type="line"/>
      <point x="596" y="687" type="line"/>
      <point x="126" y="0" type="line"/>
    </contour>
    <contour>
      <point x="660" y="-10"/>
      <point x="721" y="62"/>
      <point x="721" y="163" type="curve" smooth="yes"/>
      <point x="721" y="263"/>
      <point x="661" y="334"/>
      <point x="575" y="334" type="curve" smooth="yes"/>
      <point x="489" y="334"/>
      <point x="429" y="263"/>
      <point x="429" y="162" type="curve" smooth="yes"/>
      <point x="429" y="61"/>
      <point x="489" y="-10"/>
      <point x="574" y="-10" type="curve" smooth="yes"/>
    </contour>
    <contour>
      <point x="511" y="26"/>
      <point x="465" y="83"/>
      <point x="465" y="163" type="curve" smooth="yes"/>
      <point x="465" y="242"/>
      <point x="510" y="298"/>
      <point x="574" y="298" type="curve" smooth="yes"/>
      <point x="639" y="298"/>
      <point x="685" y="242"/>
      <point x="685" y="162" type="curve" smooth="yes"/>
      <point x="685" y="82"/>
      <point x="639" y="26"/>
      <point x="575" y="26" type="curve" smooth="yes"/>
    </contour>
    <contour>
      <point x="278" y="349"/>
      <point x="339" y="420"/>
      <point x="339" y="521" type="curve" smooth="yes"/>
      <point x="339" y="622"/>
      <point x="279" y="693"/>
      <point x="193" y="693" type="curve" smooth="yes"/>
      <point x="107" y="693"/>
      <point x="47" y="621"/>
      <point x="47" y="519" type="curve" smooth="yes"/>
      <point x="47" y="419"/>
      <point x="107" y="349"/>
      <point x="192" y="349" type="curve" smooth="yes"/>
    </contour>
    <contour>
      <point x="129" y="385"/>
      <point x="83" y="441"/>
      <point x="83" y="520" type="curve" smooth="yes"/>
      <point x="83" y="600"/>
      <point x="128" y="657"/>
      <point x="192" y="657" type="curve" smooth="yes"/>
      <point x="257" y="657"/>
      <point x="303" y="600"/>
      <point x="303" y="520" type="curve" smooth="yes"/>
      <point x="303" y="441"/>
      <point x="257" y="385"/>
      <point x="193" y="385" type="curve" smooth="yes"/>
    </contour>
    <contour>
      <point x="1032" y="-10"/>
      <point x="1093" y="62"/>
      <point x="1093" y="163" type="curve" smooth="yes"/>
      <point x="1093" y="263"/>
      <point x="1033" y="334"/>
      <point x="947" y="334" type="curve" smooth="yes"/>
      <point x="861" y="334"/>
      <point x="801" y="263"/>
      <point x="801" y="162" type="curve" smooth="yes"/>
      <point x="801" y="61"/>
      <point x="861" y="-10"/>
      <point x="946" y="-10" type="curve" smooth="yes"/>
    </contour>
    <contour>
      <point x="883" y="26"/>
      <point x="837" y="83"/>
      <point x="837" y="163" type="curve" smooth="yes"/>
      <point x="837" y="242"/>
      <point x="882" y="298"/>
      <point x="946" y="298" type="curve" smooth="yes"/>
      <point x="1011" y="298"/>
      <point x="1057" y="242"/>
      <point x="1057" y="162" type="curve" smooth="yes"/>
      <point x="1057" y="82"/>
      <point x="1011" y="26"/>
      <point x="947" y="26" type="curve" smooth="yes"/>
    </contour>
  </outline>
</glyph>
<glyph name="euro" format="1">
  <advance width="680"/>
  <unicode hex="20AC"/>
  <outline>
    <contour>
      <point x="472" y="252" type="line"/>
      <point x="472" y="288" type="line"/>
      <point x="-24" y="288" type="line"/>
      <point x="-24" y="252" type="line"/>
    </contour>
    <contour>
      <point x="472" y="419" type="line"/>
      <point x="472" y="455" type="line"/>
      <point x="-24" y="455" type="line"/>
      <point x="-24" y="419" type="line"/>
    </contour>
    <component base="C"/>
  </outline>
</glyph>
<glyph name="a.alt" format="1">
  <advance width="599"/>
  <outline>
    <contour>
      <point x="516" y="0" type="line"/>
      <point x="516" y="517" type="line"/>
      <point x="480" y="517" type="line"/>
      <point x="480" y="0" type="line"/>
    </contour>
    <component base="lowercase_loop" xOffset="605" xScale="-1"/>
    <contour>
      <point x="286" y="517" type="move" name="top"/>
    </contour>
    <contour>
      <point x="516" y="0" type="move" name="bottom"/>
    </contour>
  </outline>
</glyph>
<glyph name="ascender" format="1">
  <advance width="609"/>
  <outline>
    <contour>
      <point x="119" y="0" type="line"/>
      <point x="119" y="699" type="line"/>
      <point x="83" y="699" type="line"/>
      <point x="83" y="0" type="line"/>
    </contour>
  </outline>
</glyph>
<glyph name="lowercase_nh_shoulder" format="1">
  <advance width="600"/>
  <outline>
    <contour>
      <point x="515" y="0" type="line"/>
      <point x="515" y="339" type="line" smooth="yes"/>
      <point x="515" y="450"/>
      <point x="435" y="529"/>
      <point x="322" y="529" type="curve" smooth="yes"/>
      <point x="215" y="529"/>
      <point x="139" y="459"/>
      <point x="139" y="360" type="curve"/>
      <point x="152" y="330" type="line"/>
      <point x="152" y="425"/>
      <point x="220" y="493"/>
      <point x="317" y="493" type="curve" smooth="yes"/>
      <point x="412" y="493"/>
      <point x="479" y="427"/>
      <point x="479" y="334" type="curve" smooth="yes"/>
      <point x="479" y="0" type="line"/>
    </contour>
  </outline>
</glyph>
